HIERARCHY
ROOT Hips
{
	OFFSET 0.00000 0.00000 0.00000
	CHANNELS 6 Xposition Yposition Zposition Zrotation Yrotation Xrotation 
	JOINT LHipJoint
	{
		OFFSET 0 0 0
		CHANNELS 3 Zrotation Yrotation Xrotation
		JOINT LeftUpLeg
		{
			OFFSET 1.28858 -1.83292 1.03970
			CHANNELS 3 Zrotation Yrotation Xrotation
			JOINT LeftLeg
			{
				OFFSET 2.47846 -6.80952 0.00000
				CHANNELS 3 Zrotation Yrotation Xrotation
				JOINT LeftFoot
				{
					OFFSET 2.75274 -7.56311 0.00000
					CHANNELS 3 Zrotation Yrotation Xrotation
					JOINT LeftToeBase
					{
						OFFSET 0.12848 -0.35301 1.68223
						CHANNELS 3 Zrotation Yrotation Xrotation
						End Site
						{
							OFFSET 0.00000 -0.00000 0.87311
						}
					}
				}
			}
		}
	}
	JOINT RHipJoint
	{
		OFFSET 0 0 0
		CHANNELS 3 Zrotation Yrotation Xrotation
		JOINT RightUpLeg
		{
			OFFSET -1.31183 -1.83292 1.03970
			CHANNELS 3 Zrotation Yrotation Xrotation
			JOINT RightLeg
			{
				OFFSET -2.44740 -6.72417 0.00000
				CHANNELS 3 Zrotation Yrotation Xrotation
				JOINT RightFoot
				{
					OFFSET -2.67343 -7.34519 0.00000
					CHANNELS 3 Zrotation Yrotation Xrotation
					JOINT RightToeBase
					{
						OFFSET -0.16914 -0.46471 1.77626
						CHANNELS 3 Zrotation Yrotation Xrotation
						End Site
						{
							OFFSET -0.00000 -0.00000 0.92777
						}
					}
				}
			}
		}
	}
	JOINT LowerBack
	{
		OFFSET 0 0 0
		CHANNELS 3 Zrotation Yrotation Xrotation
		JOINT Spine
		{
			OFFSET 0.01249 2.14252 0.03842
			CHANNELS 3 Zrotation Yrotation Xrotation
			JOINT Spine1
			{
				OFFSET -0.02957 2.14199 -0.03751
				CHANNELS 3 Zrotation Yrotation Xrotation
				JOINT Neck
				{
					OFFSET 0 0 0
					CHANNELS 3 Zrotation Yrotation Xrotation
					JOINT Neck1
					{
						OFFSET -0.01678 1.65709 -0.05476
						CHANNELS 3 Zrotation Yrotation Xrotation
						JOINT Head
						{
							OFFSET 0.07912 1.58331 -0.11843
							CHANNELS 3 Zrotation Yrotation Xrotation
							End Site
							{
								OFFSET 0.03298 1.73940 -0.04271
							}
						}
					}
				}
				JOINT LeftShoulder
				{
					OFFSET 0 0 0
					CHANNELS 3 Zrotation Yrotation Xrotation
					JOINT LeftArm
					{
						OFFSET 3.39556 1.16496 0.08673
						CHANNELS 3 Zrotation Yrotation Xrotation
						JOINT LeftForeArm
						{
							OFFSET 5.23910 -0.00000 -0.00000
							CHANNELS 3 Zrotation Yrotation Xrotation
							JOINT LeftHand
							{
								OFFSET 3.31467 -0.00000 0.00000
								CHANNELS 3 Zrotation Yrotation Xrotation
								JOINT LeftFingerBase
								{
									OFFSET 0 0 0
									CHANNELS 3 Zrotation Yrotation Xrotation
									JOINT LeftHandIndex1
									{
										OFFSET 0.96590 -0.00000 0.00000
										CHANNELS 3 Zrotation Yrotation Xrotation
										End Site
										{
											OFFSET 0.77873 -0.00000 0.00000
										}
									}
								}
								JOINT LThumb
								{
									OFFSET 0 0 0
									CHANNELS 3 Zrotation Yrotation Xrotation
									End Site
									{
										OFFSET 0.79062 -0.00000 0.79062
									}
								}
							}
						}
					}
				}
				JOINT RightShoulder
				{
					OFFSET 0 0 0
					CHANNELS 3 Zrotation Yrotation Xrotation
					JOINT RightArm
					{
						OFFSET -3.27193 1.31331 0.33940
						CHANNELS 3 Zrotation Yrotation Xrotation
						JOINT RightForeArm
						{
							OFFSET -5.30252 -0.00000 0.00000
							CHANNELS 3 Zrotation Yrotation Xrotation
							JOINT RightHand
							{
								OFFSET -3.67875 -0.00000 0.00000
								CHANNELS 3 Zrotation Yrotation Xrotation
								JOINT RightFingerBase
								{
									OFFSET 0 0 0
									CHANNELS 3 Zrotation Yrotation Xrotation
									JOINT RightHandIndex1
									{
										OFFSET -0.59481 -0.00000 0.00000
										CHANNELS 3 Zrotation Yrotation Xrotation
										End Site
										{
											OFFSET -0.47955 -0.00000 0.00000
										}
									}
								}
								JOINT RThumb
								{
									OFFSET 0 0 0
									CHANNELS 3 Zrotation Yrotation Xrotation
									End Site
									{
										OFFSET -0.48687 -0.00000 0.48687
									}
								}
							}
						}
					}
				}
			}
		}
	}
}
MOTION
Frames: 12
Frame Time: .0083333
11.3478 27.7688 39.2634 0 0 0 0 0 0 -21 0 0 0 0 0 0 0 0 0 0 0 0 0 0 21 0 0 0 0 0 0 0 0 0 0 0 0 0 0 0 0 0 0 0 0 0 0 -16 0 0 21 0 0 11 0 0 0 -8 0 0 0 0 0 0 0 0 0 0 0 0 0 0 0 0 0 0 0 0 8 0 0 0 0 0 0 0 0 0 0 0 0 0 0 0 0 0
11.3478 27.7688 39.2634 -6.7929 5.1366 4.1462 0.0000 0.0000 0.0000 -10.9828 -5.8155 -6.8085 1.1964 6.9403 19.5386 0.3608 -19.5886 -16.6624 0.2630 3.2992 9.1128 0.0000 0.0000 0.0000 26.4630 -0.1793 -17.0196 -2.0914 -9.0539 25.9641 -0.0120 -7.2933 -10.6693 -3.1554 10.9425 -32.0862 8.6973 1.9719 4.6564 1.4867 2.9037 3.6517 -3.4073 1.6145 1.5443 -5.1267 -10.5706 0.4581 7.8602 -15.0327 13.7412 2.5030 -7.2319 5.0483 0.0000 0.0000 0.0000 -79.0572 10.5396 32.1671 15.3607 -24.6462 -3.3749 -0.0000 0.0000 -5.1690 8.5377 -6.2877 -0.9419 -7.1250 0.0000 -0.0000 -13.3771 23.6434 7.0770 0.0000 0.0000 0.0000 81.3554 -6.3991 25.1200 -36.4061 45.7905 -15.8129 0.0000 0.0000 15.9735 0.6543 -20.7755 -0.2321 7.1250 -0.0000 -0.0000 28.1150 -48.5530 -2.6592
11.3599 27.7369 39.2428 -3.9237 5.0193 6.1841 0.0000 0.0000 0.0000 -14.3241 -6.8414 -8.6865 1.2782 7.1649 20.2049 0.5493 -19.1712 -17.8297 0.0635 1.6254 4.4715 0.0000 0.0000 0.0000 22.9931 0.4447 -19.2922 -2.0804 -9.0315 25.8940 -0.0214 -7.6452 -11.3509 -4.2171 12.4438 -37.3207 5.9393 2.0325 2.8260 0.6425 2.7801 3.3601 -2.6789 1.5165 2.1373 -5.3381 -10.3364 0.1404 8.0008 -14.7341 13.9225 2.5742 -7.0757 5.1618 -0.0000 -0.0000 0.0000 -78.7432 10.1359 33.2674 15.1365 -24.3359 -3.2820 -0.0000 0.0000 -6.1077 8.7755 -6.5453 -1.0081 -7.1250 0.0000 -0.0000 -13.1818 23.3856 7.0487 -0.0000 -0.0000 0.0000 81.2419 -6.2909 25.2910 -36.1871 45.6414 -15.6561 0.0000 0.0000 15.8819 1.1296 -20.1423 -0.3890 7.1250 -0.0000 -0.0000 28.2033 -47.9273 -2.2028
11.3686 27.7121 39.2227 -2.3896 5.1087 7.3320 0.0000 0.0000 0.0000 -16.0142 -7.6318 -9.6778 1.3467 7.3469 20.7472 0.5668 -19.4976 -18.1257 0.0457 1.3792 3.7927 0.0000 0.0000 0.0000 21.0648 0.7460 -20.5341 -2.0934 -9.0580 25.9770 -0.1436 -7.0439 -12.8772 -3.3876 11.2976 -33.2902 4.6053 1.8661 1.8115 0.1583 2.4982 3.1863 -2.4008 1.3557 2.4571 -5.3089 -10.0587 0.0369 7.8772 -14.3458 14.0185 2.5529 -6.8865 5.1694 0.0000 0.0000 0.0000 -78.4975 10.0425 33.7357 15.1757 -24.3903 -3.2982 -0.0000 0.0000 -6.5189 8.4252 -6.5298 -0.9650 -7.1250 0.0000 -0.0000 -13.4369 23.4073 7.1857 0.0000 0.0000 0.0000 81.3637 -6.2789 25.3234 -36.0585 45.5533 -15.5642 0.0000 0.0000 15.8148 0.9913 -20.0477 -0.3398 7.1250 -0.0000 -0.0000 28.0328 -47.8630 -2.1396
11.3521 27.7031 39.2060 -2.1435 4.9975 7.2034 0.0000 0.0000 0.0000 -16.0491 -7.4421 -9.5529 1.4034 7.4936 21.1861 0.3873 -20.4399 -17.3517 0.1891 2.8005 7.7237 0.0000 0.0000 0.0000 20.9232 0.9550 -20.4581 -2.2535 -9.3753 26.9766 -0.3468 -6.0862 -15.0130 -2.6676 10.1365 -29.4199 4.4975 1.9708 2.1707 0.0671 2.6571 3.1992 -2.4465 1.4305 2.2800 -5.2752 -9.7335 0.1217 7.7472 -13.9082 14.3151 2.5392 -6.6723 5.2039 -0.0000 -0.0000 0.0000 -78.2717 9.8728 34.1189 15.2969 -24.5581 -3.3484 -0.0000 0.0000 -6.1110 7.7925 -6.4690 -0.8833 -7.1250 0.0000 -0.0000 -13.9002 23.4777 7.4248 -0.0000 -0.0000 0.0000 81.5806 -6.5900 24.8033 -35.8064 45.3794 -15.3845 0.0000 0.0000 15.9930 0.8862 -19.5182 -0.2961 7.1250 -0.0000 -0.0000 27.6720 -47.4086 -1.7753
11.3461 27.6871 39.1873 -1.2121 4.9565 7.6564 0.0000 0.0000 0.0000 -16.9206 -7.6093 -10.0693 1.4884 7.7075 21.8291 0.2628 -21.0670 -16.8245 0.2923 3.4768 9.6091 0.0000 0.0000 0.0000 19.8671 1.1951 -20.9472 -2.3381 -9.5374 27.4912 -0.5270 -5.3127 -16.6838 -2.3430 9.5467 -27.5210 3.7320 1.9766 1.9256 -0.2333 2.6556 3.1409 -2.3203 1.4164 2.3330 -5.2267 -9.4986 0.0805 7.5597 -13.5755 14.5057 2.4930 -6.5115 5.2301 -0.0000 -0.0000 0.0000 -78.0267 9.6316 34.5742 15.3505 -24.6322 -3.3707 -0.0000 0.0000 -6.0856 7.3911 -6.5277 -0.8449 -7.1250 0.0000 -0.0000 -14.1846 23.4267 7.6033 -0.0000 -0.0000 0.0000 81.7350 -6.7336 24.5459 -35.5712 45.2157 -15.2174 0.0000 0.0000 16.0544 0.9937 -19.2801 -0.3281 7.1250 -0.0000 -0.0000 27.6475 -47.1831 -1.6084
11.3372 27.6719 39.1671 -0.5757 4.9281 7.8990 0.0000 0.0000 0.0000 -17.3955 -7.5964 -10.5457 1.5967 7.9699 22.6228 0.0864 -21.7295 -15.9587 0.4546 4.3254 11.9939 0.0000 0.0000 0.0000 19.2000 1.4191 -21.1386 -2.4140 -9.6799 27.9461 -0.7142 -4.4810 -18.2119 -2.0713 9.0130 -25.8362 3.2606 1.9871 1.8978 -0.4557 2.6707 3.1303 -2.2847 1.4159 2.3259 -5.1279 -9.2175 0.0485 7.3578 -13.1823 14.7385 2.4386 -6.3188 5.2602 -0.0000 0.0000 0.0000 -77.7951 9.3392 34.8900 15.4279 -24.7388 -3.4030 -0.0000 0.0000 -5.9289 6.9608 -6.6056 -0.8046 -7.1250 0.0000 -0.0000 -14.4873 23.3571 7.8001 -0.0000 0.0000 0.0000 81.9021 -6.8611 24.3121 -35.3018 45.0264 -15.0265 0.0000 0.0000 16.0988 1.0919 -19.2094 -0.3593 7.1250 -0.0000 -0.0000 27.6982 -47.1072 -1.5561
11.3269 27.6568 39.1449 -0.1579 4.9259 8.0359 0.0000 0.0000 0.0000 -17.5663 -7.4640 -11.1170 1.7389 8.2997 23.6280 -0.1162 -22.3119 -14.8483 0.6353 5.0995 14.1927 0.0000 0.0000 0.0000 18.8287 1.6175 -21.1342 -2.4640 -9.7722 28.2423 -0.8809 -3.7273 -19.4545 -1.9112 8.6786 -24.7951 2.9998 1.9879 1.9690 -0.6190 2.6756 3.1582 -2.3089 1.4149 2.3101 -4.9865 -8.9141 -0.0073 7.1572 -12.7606 14.9848 2.3783 -6.1093 5.2952 -0.0000 0.0000 0.0000 -77.5853 8.9678 35.0741 15.5080 -24.8490 -3.4366 -0.0000 0.0000 -5.7054 6.5743 -6.7173 -0.7723 -7.1250 0.0000 -0.0000 -14.7543 23.2540 7.9899 -0.0000 0.0000 0.0000 82.0513 -6.9323 24.1635 -34.9936 44.8076 -14.8088 0.0000 0.0000 16.1106 1.1471 -19.2901 -0.3790 7.1250 -0.0000 -0.0000 27.7865 -47.1714 -1.6092
11.3169 27.6417 39.1205 0.0818 4.9668 8.1437 0.0000 0.0000 0.0000 -17.4917 -7.2829 -11.8660 1.9234 8.7047 24.8758 -0.3191 -22.7280 -13.5933 0.7715 5.6087 15.6531 0.0000 0.0000 0.0000 18.6899 1.7914 -21.0115 -2.4773 -9.7964 28.3200 -1.0114 -3.1349 -20.3715 -1.8338 8.5109 -24.2768 2.9245 1.9737 2.0512 -0.7319 2.6601 3.2122 -2.3850 1.4080 2.3208 -4.8123 -8.5984 -0.0888 6.9547 -12.3230 15.2427 2.3115 -5.8898 5.3364 -0.0000 0.0000 0.0000 -77.4072 8.5108 35.1432 15.5857 -24.9558 -3.4693 -0.0000 0.0000 -5.4429 6.2583 -6.8538 -0.7498 -7.1250 0.0000 -0.0000 -14.9674 23.1257 8.1591 -0.0000 0.0000 0.0000 82.1799 -6.9353 24.0765 -34.6579 44.5663 -14.5727 0.0000 0.0000 16.1123 1.1473 -19.5258 -0.3835 7.1250 -0.0000 -0.0000 27.9044 -47.3800 -1.7715
11.3075 27.6282 39.0941 0.1416 5.0594 8.2372 0.0000 0.0000 0.0000 -17.1807 -7.0974 -12.7890 2.1542 9.1801 26.3604 -0.5104 -22.9672 -12.2385 0.8357 5.8316 16.2965 0.0000 0.0000 0.0000 18.7846 1.9353 -20.7966 -2.4575 -9.7602 28.2035 -1.1041 -2.7661 -21.0244 -1.8097 8.4579 -24.1139 3.0159 1.9250 2.1210 -0.7854 2.5980 3.2905 -2.4924 1.3817 2.3656 -4.6040 -8.2515 -0.1983 6.7616 -11.8462 15.5177 2.2430 -5.6480 5.3855 0.0000 -0.0000 0.0000 -77.2732 7.9902 35.0619 15.6680 -25.0684 -3.5041 -0.0000 0.0000 -5.1600 6.0226 -6.9908 -0.7357 -7.1250 0.0000 -0.0000 -15.1224 22.9960 8.2965 0.0000 -0.0000 0.0000 82.2638 -6.8540 24.0985 -34.2756 44.2879 -14.3052 0.0000 0.0000 16.1357 1.0481 -19.8506 -0.3559 7.1250 -0.0000 -0.0000 27.9819 -47.6809 -2.0003
11.2981 27.6178 39.0663 0.0292 5.2086 8.3131 0.0000 0.0000 0.0000 -16.6497 -6.9413 -13.8568 2.4328 9.7147 28.0576 -0.6895 -23.0525 -10.7695 0.8524 5.8882 16.4604 0.0000 0.0000 0.0000 19.1027 2.0596 -20.5043 -2.4137 -9.6793 27.9443 -1.1599 -2.6636 -21.4638 -1.8391 8.5226 -24.3129 3.2932 1.8872 2.1873 -0.7705 2.5503 3.3755 -2.6331 1.3665 2.4258 -4.4173 -7.9512 -0.2888 6.5467 -11.4284 15.7940 2.1678 -5.4379 5.4376 -0.0000 0.0000 0.0000 -77.1807 7.4054 34.9898 15.7466 -25.1758 -3.5375 -0.0000 0.0000 -4.8676 5.8935 -7.1155 -0.7326 -7.1250 0.0000 -0.0000 -15.2019 22.8769 8.3865 -0.0000 0.0000 0.0000 82.3079 -6.7511 24.0777 -33.8232 43.9533 -13.9902 0.0000 0.0000 16.2368 0.8292 -20.1325 -0.2854 7.1250 -0.0000 -0.0000 27.9337 -47.9602 -2.2026
11.2885 27.6127 39.0380 -0.0984 5.3951 8.4044 0.0000 0.0000 0.0000 -16.0947 -6.8563 -15.0459 2.7556 10.2884 29.9159 -0.8639 -23.0052 -9.0923 0.9056 6.0643 16.9710 0.0000 0.0000 0.0000 19.4444 2.1817 -20.1828 -2.3558 -9.5708 27.5978 -1.2118 -2.7155 -21.9342 -1.8704 8.5907 -24.5231 3.5806 1.8656 2.2307 -0.7279 2.5230 3.4665 -2.7498 1.3623 2.5057 -4.2328 -7.6844 -0.3705 6.2835 -11.0481 16.0739 2.0757 -5.2492 5.4908 -0.0000 -0.0000 0.0000 -77.1299 6.7433 34.9352 15.8152 -25.2695 -3.5667 -0.0000 0.0000 -4.5796 5.8886 -7.2294 -0.7436 -7.1250 0.0000 -0.0000 -15.1938 22.7665 8.4217 -0.0000 -0.0000 0.0000 82.3169 -6.6162 23.9976 -33.2839 43.5471 -13.6173 0.0000 0.0000 16.4431 0.5621 -20.2990 -0.1950 7.1250 -0.0000 -0.0000 27.7840 -48.1449 -2.3243
